<?xml version="1.0" encoding="utf-8"?>
<!-- Generator: Adobe Illustrator 17.0.0, SVG Export Plug-In . SVG Version: 6.00 Build 0)  -->
<!DOCTYPE svg PUBLIC "-//W3C//DTD SVG 1.1//EN" "http://www.w3.org/Graphics/SVG/1.1/DTD/svg11.dtd">
<svg version="1.1" id="圖層_1" xmlns="http://www.w3.org/2000/svg" xmlns:xlink="http://www.w3.org/1999/xlink" x="0px" y="0px"
	 width="34.016px" height="26.668px" viewBox="0 0 34.016 26.668" enable-background="new 0 0 34.016 26.668" xml:space="preserve">
<g>
	<g>
		<path fill="#FFFFFF" d="M29.027,8.191l3.752-3.752c0.049-0.047,0.074-0.111,0.074-0.178c0-0.068-0.025-0.131-0.074-0.178
			l-3.101-3.102c-0.047-0.049-0.11-0.074-0.178-0.074c-0.066,0-0.13,0.025-0.179,0.074L25.57,4.734l-3.752-3.752
			c-0.095-0.096-0.263-0.096-0.356,0l-3.101,3.102c-0.1,0.098-0.1,0.258,0,0.355l3.751,3.752l-3.751,3.752
			c-0.1,0.098-0.1,0.258,0,0.357l3.101,3.102c0.047,0.047,0.111,0.072,0.178,0.072c0.067,0,0.131-0.025,0.179-0.072l3.752-3.754
			l3.752,3.754c0.049,0.047,0.112,0.072,0.179,0.072c0.067,0,0.131-0.025,0.178-0.072l3.101-3.102
			c0.049-0.049,0.074-0.111,0.074-0.18c0-0.066-0.025-0.131-0.074-0.178L29.027,8.191z M22.826,8.191l2.744-2.744l2.744,2.744
			l-2.744,2.744L22.826,8.191z"/>
		<g>
			<path fill="#FFFFFF" d="M8.347,0C3.822,0,0.154,3.668,0.154,8.191c0,4.525,3.668,8.193,8.193,8.193
				c4.524,0,8.192-3.668,8.192-8.193C16.54,3.668,12.872,0,8.347,0z M8.347,9.455c-0.7,0-1.268-0.566-1.268-1.268
				c0-0.699,0.567-1.268,1.268-1.268c0.699,0,1.267,0.568,1.267,1.268C9.614,8.889,9.047,9.455,8.347,9.455z"/>
		</g>
	</g>
	<g>
		<path fill="#FFFFFF" d="M3.159,23.855c-0.03-0.01-0.077-0.037-0.144-0.076c-0.149-0.092-0.399-0.242-0.874-0.432
			C1.265,22.996,0.914,22.674,1,22.315c0.151-0.377,0.43-0.381,0.443-0.381l1.088-0.002c0.016,0.002,0.367,0.064,0.431,0.408
			c-0.006,0.059-0.014,0.264,0.116,0.414c0.089,0.104,0.222,0.156,0.394,0.156c0.159,0,0.282-0.051,0.365-0.154
			c0.162-0.195,0.103-0.504,0.102-0.504c-0.002-0.012-0.093-1.106-1.299-1.291H1.368c-0.034,0-0.833,0.027-1.254,0.92
			c-0.365,0.986,0.319,1.637,0.516,1.75c0.02,0.016,0.483,0.359,1.061,0.578c0.678,0.256,1.356,0.58,1.262,1.047
			c-0.073,0.35-0.281,0.402-0.398,0.402H1.448c-0.074,0-0.447-0.027-0.455-0.586c-0.059-0.285-0.295-0.387-0.516-0.387
			c0,0-0.001,0-0.002,0c-0.132,0.004-0.398,0.086-0.464,0.377c-0.042,0.188,0.026,0.623,0.305,1c0.179,0.244,0.511,0.543,1.082,0.59
			h1.187h0.001c0.011,0,1.007-0.029,1.305-1.072C4.195,24.518,3.291,23.9,3.159,23.855z"/>
		<path fill="#FFFFFF" d="M13.345,21.945c0.273,0,0.496-0.225,0.496-0.498c0-0.274-0.223-0.496-0.496-0.496h-2.961
			c-0.273,0-0.496,0.223-0.496,0.496c0,0.273,0.223,0.498,0.496,0.498h0.984v3.729h-0.984c-0.273,0-0.496,0.223-0.496,0.496
			c0,0.273,0.223,0.496,0.496,0.496h2.961c0.273,0,0.496-0.223,0.496-0.496c0-0.273-0.223-0.496-0.496-0.496h-0.984v-3.729H13.345z"
			/>
		<path fill="#FFFFFF" d="M33.023,25.768v0.404c0,0.273,0.223,0.496,0.497,0.496c0.273,0,0.496-0.223,0.496-0.496l-0.002-0.566
			c0.005-0.123-0.036-0.242-0.115-0.336l-1.207-1.441l1.207-1.439c0.079-0.094,0.12-0.213,0.115-0.324l0.002-0.617
			c0-0.274-0.223-0.496-0.496-0.496c-0.274,0-0.497,0.223-0.497,0.496v0.441l-0.96,1.144l-1.007-1.144v-0.441
			c0-0.274-0.223-0.496-0.495-0.496c-0.274,0-0.497,0.223-0.497,0.496l0.001,0.604c-0.005,0.125,0.037,0.244,0.115,0.338
			l1.208,1.439L30.18,25.27c-0.078,0.094-0.12,0.213-0.116,0.348v0.555c0,0.273,0.223,0.496,0.497,0.496
			c0.272,0,0.495-0.223,0.495-0.496v-0.404l1.006-1.143"/>
		<path fill="#FFFFFF" d="M18.397,20.951c-0.274,0-0.497,0.223-0.497,0.496v2.976l-1.972-3.15c-0.02-0.033-0.045-0.063-0.071-0.09
			c-0.091-0.144-0.25-0.232-0.42-0.232c-0.274,0-0.497,0.223-0.497,0.496v4.723c0,0.273,0.223,0.496,0.497,0.496
			c0.273,0,0.495-0.223,0.495-0.496v-3.018l2.001,3.191c0.071,0.191,0.259,0.322,0.464,0.322c0.274,0,0.497-0.223,0.497-0.496
			v-4.723C18.894,21.174,18.672,20.951,18.397,20.951z"/>
		<path fill="#FFFFFF" d="M7.394,20.961H5.547c-0.273,0-0.496,0.223-0.496,0.496v4.713c0,0.273,0.223,0.496,0.496,0.496
			c0.274,0,0.497-0.223,0.497-0.496v-1.879h1.353c1.524,0,1.587-1.391,1.587-1.406v-0.57C8.789,20.838,7.403,20.957,7.394,20.961z
			 M8.004,22.871c-0.06,0.44-0.477,0.463-0.574,0.463H7.428H6.044v-1.416h1.353c0.546,0,0.605,0.428,0.607,0.434V22.871z"/>
		<path fill="#FFFFFF" d="M27.684,20.951h-1.323h-0.037c-0.193,0-1.159,0.059-1.282,1.246v3.234c0.123,1.178,1.09,1.236,1.282,1.236
			h1.322h0.037c0.192,0,1.158-0.059,1.283-1.246l-0.001-3.234C28.841,21.01,27.877,20.951,27.684,20.951z M27.981,25.393
			c-0.03,0.254-0.178,0.283-0.265,0.281h-1.433h-0.013c-0.066,0-0.223-0.027-0.252-0.269v-3.186c0.029-0.25,0.183-0.279,0.263-0.279
			c0.001,0,0.001,0,0.002,0h1.446c0.065,0,0.221,0.027,0.249,0.269L27.981,25.393z"/>
		<path fill="#FFFFFF" d="M22.654,20.951h-2.165c-0.275,0-0.497,0.223-0.497,0.496v4.723c0,0.273,0.223,0.496,0.497,0.496h1.888
			c0.038,0.002,0.074,0.002,0.11,0.002c0.463,0,0.825-0.131,1.078-0.389c0.369-0.375,0.363-0.881,0.362-0.893
			c0.001-0.01,0.016-0.221,0.001-0.809c-0.012-0.383-0.152-0.637-0.265-0.777c0.148-0.199,0.239-0.453,0.271-0.76l0.008-0.293
			l-0.009-0.561C23.811,21.01,22.845,20.951,22.654,20.951z M20.985,23.313v-1.367l1.712-0.002c0.065,0,0.222,0.027,0.25,0.27v0.818
			c-0.028,0.254-0.184,0.281-0.255,0.281l0,0H20.985z M22.947,24.574v0.818c-0.028,0.252-0.183,0.281-0.262,0.281
			c0,0-0.001,0-0.003,0h-1.697v-1.369h1.712C22.762,24.305,22.919,24.334,22.947,24.574z"/>
	</g>
</g>
</svg>
